<svg xmlns="http://www.w3.org/2000/svg" viewBox="0 0 24 24" width="480px" height="480px">
  <path
    d="M12,2C6.47,2,2,6.47,2,12s4.47,10,10,10s10-4.47,10-10S17.53,2,12,2z M17,15.59L15.59,17L12,13.41L8.41,17L7,15.59 L10.59,12L7,8.41L8.41,7L12,10.59L15.59,7L17,8.41L13.41,12L17,15.59z"
    fill="#FF4D5E" />
<path d=" 54,15,16.414,15,16.414
s-3.139,3.139-3.293,3.293c-0.391,0.391-1.024,0.391-1.414,0c-0.391-0.391-0.391-1.024,0-1.414C10.446,18.139,13.586,15,13.586,15
s-3.139-3.139-3.293-3.293c-0.391-0.391-0.391-1.024,0-1.414c0.391-0.391,1.024-0.391,1.414,0C11.861,10.446,15,13.586,15,13.586
s3.139-3.139,3.293-3.293c0.391-0.391,1.024-0.391,1.414,0c0.391,0.391,0.391,1.024,0,1.414C19.554,11.861,16.414,15,16.414,15z"
fill="#FF4D5E" />
</svg>