<svg xmlns="http://www.w3.org/2000/svg" viewBox="0 0 24 24" width="144px" height="144px">
  <path d="M19.355,10.036C18.674,6.595,15.641,4,12,4C9.108,4,6.603,5.639,5.352,8.036C2.343,8.36,0,10.906,0,14c0,3.314,2.686,6,6,6 h13c2.761,0,5-2.239,5-5C24,12.36,21.948,10.221,19.355,10.036z M12,18l-5-5h3V9h4v4h3L12,18z" fill="#FF4D5E" />
<path d="21 7.2148438 21 L 14 21 L 14 14 C 14 13.448 14.448 13 15 13 C 15.552 13 16 13.448 16 14 L 16 21 L 22.787109 21 C 25.870109 21 28.612938 18.764172 28.960938 15.701172 C 29.292938 12.778172 27.519797 10.222937 24.966797 9.3359375 C 24.628797 5.2289375 21.194 2 17 2 z M 16 21 L 14 21 L 14 26.585938 L 11.707031 24.292969 A 1.0001 1.0001 0 0 0 10.990234 23.990234 A 1.0001 1.0001 0 0 0 10.292969 25.707031 L 14.292969 29.707031 A 1.0001 1.0001 0 0 0 15.707031 29.707031 L 19.707031 25.707031 A 1.0001 1.0001 0 1 0 18.292969 24.292969 L 16 26.585938 L 16 21 z" fill="#FF4D5E" />
</svg>